PathFileType	4	(X/Y/Z)	Patient4_TMGait_0pt6_01_left_20.trc.trc
DataRate	CameraRate	NumFrames	NumMarkers	Units	OrigDataRate	OrigDataStartFrame	OrigNumFrames
80.459770114943	80.459770114943	4	33	mm	80.459770114943	106	       141
Frame#	Time	Sacral			L.Shoulder			Chest			R.Shoulder			Neck			R.ASIS			L.ASIS			R.Thigh.Superior			R.Thigh.Lateral			R.Thigh.Inferior			R.Patella			L.Thigh.Superior			L.Thigh.Lateral			L.Thigh.Inferior			L.Patella			L.Shank.Superior			L.Shank.Lateral			L.Shank.Inferior			R.Shank.Superior			R.Shank.Lateral			R.Shank.Inferior			R.Heel			R.Midfoot.Superior			R.Midfoot.Lateral			R.Toe			L.Heel			L.Midfoot.Lateral			L.Midfoot.Superior			L.Toe			L.Elbow			L.Wrist			R.Elbow			R.Wrist			
		X1	Y1	Z1	X2	Y2	Z2	X3	Y3	Z3	X4	Y4	Z4	X5	Y5	Z5	X6	Y6	Z6	X7	Y7	Z7	X8	Y8	Z8	X9	Y9	Z9	X10	Y10	Z10	X11	Y11	Z11	X12	Y12	Z12	X13	Y13	Z13	X14	Y14	Z14	X15	Y15	Z15	X16	Y16	Z16	X17	Y17	Z17	X18	Y18	Z18	X19	Y19	Z19	X20	Y20	Z20	X21	Y21	Z21	X22	Y22	Z22	X23	Y23	Z23	X24	Y24	Z24	X25	Y25	Z25	X26	Y26	Z26	X27	Y27	Z27	X28	Y28	Z28	X29	Y29	Z29	X30	Y30	Z30	X31	Y31	Z31	X32	Y32	Z32	X33	Y33	Z33	

106	25.585000000000	694.256364296736	1013.091061588296	543.030734975312	853.497490786745	1438.848445773465	348.353315763849	974.013740942843	1372.341561226477	497.812819790123	908.167864209034	1444.038257187101	679.385946683072	849.413881689945	1498.157583452324	503.000009590818	926.621514317007	944.662320948224	640.273213651563	892.900853899640	969.799937060941	369.622753126301	952.368127766521	738.059431622240	604.992549025030	865.539552206876	634.905205462027	668.276083155853	931.375218889384	579.384907562787	583.151040874584	924.393648021946	492.615033481004	587.100687440920	983.596097054099	792.013375295482	401.627841290363	943.936913446121	663.920608502038	324.076513598485	1048.961691423754	606.555584661749	385.835575452245	1071.659046464145	525.752367514147	379.236789711696	1028.385852892587	450.634964114331	370.977926295020	914.461586098519	359.141223717593	321.987052773544	953.896734999961	234.514090875214	376.388317388827	896.757786070096	403.892976425810	592.888124160724	825.488116350789	299.321047664479	651.910884214677	865.764279266606	206.009235894805	585.984362597527	730.101502354834	42.149160855500	550.957507138369	900.502187675879	97.081233629362	591.377883325968	811.405196994337	36.496613431537	628.165997144205	1019.901166293379	44.154814652001	622.027230614877	806.629731373872	97.485016488382	415.604892154244	874.799021358054	83.731900743709	332.389829192023	967.562917524726	132.271201930126	352.972288345775	1082.440477993727	63.519188159977	318.348603828912	804.197037201137	1079.542724097629	251.773456515612	836.558777407636	821.788701995336	260.598906935936	978.038968519635	1110.805708232601	814.261732582277	1223.891427956862	1042.524284168535	782.877062701956	
107	25.597428571429	692.872126824428	1013.678010332623	544.021794377230	852.995468421734	1438.586328969291	348.464088799497	974.043160587218	1371.777182810902	497.328942975351	909.499196023485	1444.251282262604	679.084089590725	849.756211965098	1498.049968373773	502.883900673732	925.311112834162	944.018982642680	640.133584736999	890.677021488773	970.191895650983	369.602770476968	949.254000248612	737.258456887796	604.138980460931	862.191334928283	634.619815529537	668.171533515440	927.003615057105	578.724533977962	582.669595699220	919.320349600863	492.013859541778	586.730391012608	981.228584062884	792.840631909389	401.438390305639	941.855224897051	664.749754265581	323.461580156623	1046.257519598535	607.526401825312	386.179296438020	1070.566095395581	529.153122822123	379.496416554301	1031.825011842288	453.700947784807	370.673353436767	925.486030734411	354.494119879566	320.248839632184	973.325738518339	232.623209278005	375.002040553550	891.180571711337	403.420063097136	592.654073906561	819.494809387721	299.201655673652	651.820416877497	859.016729155869	205.680515061219	585.791573056465	722.612752411154	42.139987211895	550.985688487095	892.970049678530	96.978778546750	591.266912575523	803.895841358196	36.501295369606	628.166291384348	1012.387845858472	44.020999160595	622.038559308610	836.126682525495	85.038458992775	412.575206771391	906.291391263297	76.220175844495	330.276998361453	995.026119350382	131.340092928275	351.801827531200	1115.058536573595	70.996706868934	318.948542741100	796.353104809862	1080.441454381581	252.181038210872	821.167007169934	822.064836523592	261.711767394562	985.531994003202	1113.078574083660	813.991930636456	1234.315149147717	1060.114557751475	780.264175061184	
108	25.609857142857	691.589999171954	1014.181184002657	544.824235966175	852.619662049575	1438.321712278663	348.502791308203	974.132085856141	1371.128241801011	496.781899617111	910.827392770616	1444.316702172621	678.706311228680	850.164692045896	1497.883845451864	502.695473879860	924.091653560226	943.357074829248	639.897455045714	888.602165779881	970.435443291444	369.449852663997	946.219572029760	736.410615093492	603.437926089679	858.771277868396	634.291605027497	668.056930053550	922.651976164181	578.005209708153	582.270304506700	914.235254197684	491.396814245791	586.405086207850	978.564727549131	793.069725559519	401.174836147510	939.350116412530	665.141926532011	322.654256419847	1042.908902245811	607.849472283207	386.560964094941	1068.730138327657	532.040726336487	379.823497947145	1034.483016920169	456.561496661309	370.443412898796	936.199820558605	350.224104370822	318.478710278652	991.937922162086	231.708948471486	373.859093829442	885.601036886569	402.964501675614	592.452798963676	813.481579121235	299.103889664521	651.768495496304	852.257745276689	205.370739770876	585.637810581714	715.123122623708	42.157094973394	551.021732434266	885.449343279991	96.864848863596	591.170034133424	796.389721763487	36.507123711595	628.171456824468	1004.886335988886	43.841561366618	622.056725382217	865.139150354441	74.614164833194	409.668182327527	937.234148947235	70.439271355423	328.527320291204	1021.573386170676	131.713302309024	351.081306403167	1146.148211468022	79.696948654544	320.535088282104	788.667632982347	1081.520503514397	252.466698665269	806.610998646669	822.780747591802	262.795951504284	992.874009406693	1115.251890537129	813.479960134614	1243.582410919028	1077.243046597977	777.530697728726	
109	25.622285714286	690.422217584291	1014.593325697424	545.424872543476	852.347902451648	1438.074716563287	348.465271222442	974.258294594654	1370.419552431539	496.172906761173	912.117805582547	1444.243897746062	678.255539154094	850.614076979162	1497.674315132711	502.437747082798	922.981896853004	942.703929337630	639.555320468518	886.686483882376	970.531239843189	369.156070485739	943.257957829632	735.525753517712	602.894922939830	855.252924515502	633.939082093048	667.929728758424	918.296240479683	577.234445931925	581.959811951365	909.118788036498	490.773000814869	586.137791794746	975.669727638406	792.772209707755	400.847427646043	936.538584955562	665.151452414959	321.674985655951	1039.118342955741	607.643359612528	386.911582148784	1066.331118479371	534.445389822505	380.159842147874	1036.441188779151	459.200037076649	370.239671819089	946.384224465453	346.437857951269	316.801086209580	1009.420037780118	231.745046526742	372.982594679184	879.995567051308	402.535759835420	592.290880800079	807.420886246848	299.042033106274	651.760349105918	845.478630571503	205.093085575067	585.534934539347	707.631082071120	42.202094533847	551.067200472930	877.942032048841	96.746261842326	591.099182350483	788.886113028315	36.513646171611	628.183003231631	997.397014454487	43.623048618673	622.084720869375	893.068466134665	66.333253727802	407.131013003385	966.936197838005	66.386390432569	327.265641155390	1046.702933324911	133.279372834244	350.786411778162	1175.143758940584	89.286401994939	322.867768165104	781.262548263704	1082.765383896411	252.652579858513	792.914727013638	823.855138431804	263.862308401597	1000.038620495023	1117.319460593691	812.724756661834	1251.753223470596	1093.732129855645	774.713691506698	
